<svg width="1600" height="900" viewBox="0 0 1600 900" fill="none" xmlns="http://www.w3.org/2000/svg">
  <defs>
    <linearGradient id="bg" x1="220" y1="120" x2="1370" y2="820" gradientUnits="userSpaceOnUse">
      <stop stop-color="#F8FCFF"/>
      <stop offset="0.5" stop-color="#E4F2F7"/>
      <stop offset="1" stop-color="#DCEFF1"/>
    </linearGradient>
    <linearGradient id="card" x1="1040" y1="210" x2="1295" y2="640" gradientUnits="userSpaceOnUse">
      <stop stop-color="#0EA5E9"/>
      <stop offset="1" stop-color="#0F766E"/>
    </linearGradient>
    <radialGradient id="glowA" cx="0" cy="0" r="1" gradientUnits="userSpaceOnUse" gradientTransform="translate(1330 170) rotate(142.955) scale(402.857 271.313)">
      <stop stop-color="#38BDF8" stop-opacity="0.3"/>
      <stop offset="1" stop-color="#38BDF8" stop-opacity="0"/>
    </radialGradient>
    <radialGradient id="glowB" cx="0" cy="0" r="1" gradientUnits="userSpaceOnUse" gradientTransform="translate(240 740) rotate(10.125) scale(394.757 220.742)">
      <stop stop-color="#10B981" stop-opacity="0.24"/>
      <stop offset="1" stop-color="#10B981" stop-opacity="0"/>
    </radialGradient>
  </defs>

  <rect width="1600" height="900" rx="36" fill="url(#bg)"/>
  <rect width="1600" height="900" rx="36" fill="url(#glowA)"/>
  <rect width="1600" height="900" rx="36" fill="url(#glowB)"/>

  <g opacity="0.9">
    <circle cx="1210" cy="154" r="14" fill="#0EA5E9"/>
    <circle cx="1260" cy="154" r="14" fill="#99F6E4"/>
    <circle cx="1310" cy="154" r="14" fill="#A5F3FC"/>
  </g>

  <rect x="1032" y="184" width="342" height="478" rx="34" fill="url(#card)"/>
  <rect x="1060" y="226" width="286" height="362" rx="26" fill="white" fill-opacity="0.18"/>
  <rect x="1090" y="276" width="226" height="20" rx="10" fill="white" fill-opacity="0.9"/>
  <rect x="1090" y="316" width="174" height="16" rx="8" fill="white" fill-opacity="0.75"/>
  <rect x="1090" y="372" width="226" height="108" rx="22" fill="white" fill-opacity="0.16"/>
  <circle cx="1150" cy="532" r="42" fill="white" fill-opacity="0.92"/>
  <path d="M1150 511C1138.4 511 1129 520.4 1129 532C1129 543.6 1138.4 553 1150 553C1161.6 553 1171 543.6 1171 532C1171 520.4 1161.6 511 1150 511ZM1159.8 535.6H1153.6V541.8C1153.6 543.8 1152 545.4 1150 545.4C1148 545.4 1146.4 543.8 1146.4 541.8V535.6H1140.2C1138.2 535.6 1136.6 534 1136.6 532C1136.6 530 1138.2 528.4 1140.2 528.4H1146.4V522.2C1146.4 520.2 1148 518.6 1150 518.6C1152 518.6 1153.6 520.2 1153.6 522.2V528.4H1159.8C1161.8 528.4 1163.4 530 1163.4 532C1163.4 534 1161.8 535.6 1159.8 535.6Z" fill="#0F766E"/>

  <rect x="160" y="170" width="782" height="560" rx="40" fill="white" fill-opacity="0.56" stroke="#B7D3DD"/>
  <rect x="220" y="236" width="122" height="122" rx="30" fill="#F0FDFA" stroke="#7DD3C8"/>
  <path d="M280 270C263.431 270 250 283.431 250 300C250 316.569 263.431 330 280 330C296.569 330 310 316.569 310 300C310 283.431 296.569 270 280 270ZM293.5 303.5H283.5V313.5C283.5 315.433 281.933 317 280 317C278.067 317 276.5 315.433 276.5 313.5V303.5H266.5C264.567 303.5 263 301.933 263 300C263 298.067 264.567 296.5 266.5 296.5H276.5V286.5C276.5 284.567 278.067 283 280 283C281.933 283 283.5 284.567 283.5 286.5V296.5H293.5C295.433 296.5 297 298.067 297 300C297 301.933 295.433 303.5 293.5 303.5Z" fill="#0F766E"/>

  <text x="220" y="430" fill="#0F172A" font-family="Vazirmatn, Arial, sans-serif" font-size="78" font-weight="800">Medical Tourism</text>
  <text x="220" y="510" fill="#0F172A" font-family="Vazirmatn, Arial, sans-serif" font-size="78" font-weight="800">Marketing System</text>
  <text x="220" y="580" fill="#475569" font-family="Vazirmatn, Arial, sans-serif" font-size="34" font-weight="500">Lead generation, trust building, CRM integration</text>
  <text x="220" y="628" fill="#475569" font-family="Vazirmatn, Arial, sans-serif" font-size="34" font-weight="500">and patient acquisition for international clinics</text>

  <rect x="220" y="666" width="182" height="62" rx="22" fill="#0F766E"/>
  <text x="258" y="706" fill="white" font-family="Vazirmatn, Arial, sans-serif" font-size="28" font-weight="700">Farldo Marketing</text>

  <rect x="428" y="666" width="154" height="62" rx="22" fill="white" stroke="#9BC7D6"/>
  <text x="468" y="706" fill="#0F766E" font-family="Vazirmatn, Arial, sans-serif" font-size="28" font-weight="700">Global Reach</text>
</svg>
